<mxfile host="app.diagrams.net" agent="Mozilla/5.0 (X11; Linux x86_64; rv:134.0) Gecko/20100101 Firefox/134.0" version="28.2.5">
  <diagram name="Página-1" id="m-0ZAMzBHoHZ2AMP4U0e">
    <mxGraphModel dx="1426" dy="754" grid="1" gridSize="10" guides="1" tooltips="1" connect="1" arrows="1" fold="1" page="1" pageScale="1" pageWidth="827" pageHeight="1169" math="0" shadow="0">
      <root>
        <mxCell id="0" />
        <mxCell id="1" parent="0" />
        <mxCell id="-LpQhi8gAM7fTuOy2161-1" value="CLIENTES" style="swimlane;childLayout=stackLayout;horizontal=1;startSize=30;horizontalStack=0;rounded=1;fontSize=14;fontStyle=0;strokeWidth=2;resizeParent=0;resizeLast=1;shadow=0;dashed=0;align=center;arcSize=4;whiteSpace=wrap;html=1;fillColor=#dae8fc;strokeColor=#6c8ebf;" vertex="1" parent="1">
          <mxGeometry x="10" y="50" width="140" height="110" as="geometry" />
        </mxCell>
        <mxCell id="-LpQhi8gAM7fTuOy2161-2" value="&lt;div&gt;NOMBRE &lt;br&gt;&lt;/div&gt;&lt;div&gt;DIRECCION POSTAL&lt;/div&gt;&lt;div&gt;Nº TELEFONO&lt;/div&gt;&lt;div&gt;EMAIL&lt;/div&gt;&lt;div&gt;&lt;br&gt;&lt;/div&gt;" style="align=left;strokeColor=none;fillColor=none;spacingLeft=4;spacingRight=4;fontSize=12;verticalAlign=top;resizable=0;rotatable=0;part=1;html=1;whiteSpace=wrap;" vertex="1" parent="-LpQhi8gAM7fTuOy2161-1">
          <mxGeometry y="30" width="140" height="80" as="geometry" />
        </mxCell>
        <mxCell id="-LpQhi8gAM7fTuOy2161-3" value="CONTRATAN" style="rhombus;whiteSpace=wrap;html=1;fillColor=#ffe6cc;strokeColor=#d79b00;" vertex="1" parent="1">
          <mxGeometry x="190" y="115" width="100" height="90" as="geometry" />
        </mxCell>
        <mxCell id="-LpQhi8gAM7fTuOy2161-4" style="edgeStyle=orthogonalEdgeStyle;rounded=0;orthogonalLoop=1;jettySize=auto;html=1;" edge="1" parent="1" source="-LpQhi8gAM7fTuOy2161-2" target="-LpQhi8gAM7fTuOy2161-3">
          <mxGeometry relative="1" as="geometry" />
        </mxCell>
        <mxCell id="-LpQhi8gAM7fTuOy2161-5" value="ANUNCIOS" style="swimlane;childLayout=stackLayout;horizontal=1;startSize=30;horizontalStack=0;rounded=1;fontSize=14;fontStyle=0;strokeWidth=2;resizeParent=0;resizeLast=1;shadow=0;dashed=0;align=center;arcSize=4;whiteSpace=wrap;html=1;fillColor=#dae8fc;strokeColor=#6c8ebf;" vertex="1" parent="1">
          <mxGeometry x="310" y="120" width="150" height="90" as="geometry" />
        </mxCell>
        <mxCell id="-LpQhi8gAM7fTuOy2161-6" value="&lt;div&gt;NOMBRE&lt;/div&gt;&lt;div&gt;TITULO&lt;/div&gt;&lt;div&gt;CONTENIDO&lt;br&gt;&lt;/div&gt;" style="align=left;strokeColor=none;fillColor=none;spacingLeft=4;spacingRight=4;fontSize=12;verticalAlign=top;resizable=0;rotatable=0;part=1;html=1;whiteSpace=wrap;" vertex="1" parent="-LpQhi8gAM7fTuOy2161-5">
          <mxGeometry y="30" width="150" height="60" as="geometry" />
        </mxCell>
        <mxCell id="-LpQhi8gAM7fTuOy2161-7" style="edgeStyle=orthogonalEdgeStyle;rounded=0;orthogonalLoop=1;jettySize=auto;html=1;entryX=0.006;entryY=0.375;entryDx=0;entryDy=0;entryPerimeter=0;" edge="1" parent="1" source="-LpQhi8gAM7fTuOy2161-3" target="-LpQhi8gAM7fTuOy2161-5">
          <mxGeometry relative="1" as="geometry" />
        </mxCell>
        <mxCell id="-LpQhi8gAM7fTuOy2161-35" style="edgeStyle=orthogonalEdgeStyle;rounded=0;orthogonalLoop=1;jettySize=auto;html=1;entryX=0.4;entryY=0.878;entryDx=0;entryDy=0;entryPerimeter=0;" edge="1" parent="1" source="-LpQhi8gAM7fTuOy2161-10" target="-LpQhi8gAM7fTuOy2161-12">
          <mxGeometry relative="1" as="geometry">
            <mxPoint x="250" y="420" as="targetPoint" />
          </mxGeometry>
        </mxCell>
        <mxCell id="-LpQhi8gAM7fTuOy2161-10" value="CATEGORIAS" style="swimlane;childLayout=stackLayout;horizontal=1;startSize=50;horizontalStack=0;rounded=1;fontSize=14;fontStyle=0;strokeWidth=2;resizeParent=0;resizeLast=1;shadow=0;dashed=0;align=center;arcSize=4;whiteSpace=wrap;html=1;fillColor=#dae8fc;strokeColor=#6c8ebf;" vertex="1" parent="1">
          <mxGeometry x="315" y="460" width="140" height="90" as="geometry" />
        </mxCell>
        <mxCell id="-LpQhi8gAM7fTuOy2161-11" value="TIPO PRODUCTO" style="align=left;strokeColor=none;fillColor=none;spacingLeft=4;spacingRight=4;fontSize=12;verticalAlign=top;resizable=0;rotatable=0;part=1;html=1;whiteSpace=wrap;" vertex="1" parent="-LpQhi8gAM7fTuOy2161-10">
          <mxGeometry y="50" width="140" height="40" as="geometry" />
        </mxCell>
        <mxCell id="-LpQhi8gAM7fTuOy2161-14" style="edgeStyle=orthogonalEdgeStyle;rounded=0;orthogonalLoop=1;jettySize=auto;html=1;" edge="1" parent="1" source="-LpQhi8gAM7fTuOy2161-12" target="-LpQhi8gAM7fTuOy2161-6">
          <mxGeometry relative="1" as="geometry" />
        </mxCell>
        <mxCell id="-LpQhi8gAM7fTuOy2161-12" value="PERTENECE" style="rhombus;whiteSpace=wrap;html=1;fillColor=#ffe6cc;strokeColor=#d79b00;" vertex="1" parent="1">
          <mxGeometry x="329" y="280" width="100" height="90" as="geometry" />
        </mxCell>
        <mxCell id="-LpQhi8gAM7fTuOy2161-19" value="PAGINA WEB&lt;span style=&quot;white-space: pre;&quot;&gt;&#x9;&lt;/span&gt;" style="swimlane;childLayout=stackLayout;horizontal=1;startSize=50;horizontalStack=0;rounded=1;fontSize=14;fontStyle=0;strokeWidth=2;resizeParent=0;resizeLast=1;shadow=0;dashed=0;align=center;arcSize=4;whiteSpace=wrap;html=1;fillColor=#dae8fc;strokeColor=#6c8ebf;" vertex="1" parent="1">
          <mxGeometry x="630" y="110" width="160" height="120" as="geometry" />
        </mxCell>
        <mxCell id="-LpQhi8gAM7fTuOy2161-22" value="&lt;div&gt;URL&lt;/div&gt;&lt;div&gt;NOMBRE&lt;/div&gt;&lt;div&gt;TIPO INTERES&lt;br&gt;&lt;/div&gt;" style="text;html=1;align=center;verticalAlign=middle;resizable=0;points=[];autosize=1;strokeColor=none;fillColor=none;" vertex="1" parent="-LpQhi8gAM7fTuOy2161-19">
          <mxGeometry y="50" width="160" height="70" as="geometry" />
        </mxCell>
        <mxCell id="-LpQhi8gAM7fTuOy2161-24" style="edgeStyle=orthogonalEdgeStyle;rounded=0;orthogonalLoop=1;jettySize=auto;html=1;entryX=1;entryY=0.25;entryDx=0;entryDy=0;" edge="1" parent="1" source="-LpQhi8gAM7fTuOy2161-23" target="-LpQhi8gAM7fTuOy2161-6">
          <mxGeometry relative="1" as="geometry" />
        </mxCell>
        <mxCell id="-LpQhi8gAM7fTuOy2161-25" style="edgeStyle=orthogonalEdgeStyle;rounded=0;orthogonalLoop=1;jettySize=auto;html=1;" edge="1" parent="1" source="-LpQhi8gAM7fTuOy2161-23" target="-LpQhi8gAM7fTuOy2161-22">
          <mxGeometry relative="1" as="geometry" />
        </mxCell>
        <mxCell id="-LpQhi8gAM7fTuOy2161-23" value="APARECEN" style="rhombus;whiteSpace=wrap;html=1;fillColor=#ffe6cc;strokeColor=#d79b00;" vertex="1" parent="1">
          <mxGeometry x="510" y="120" width="80" height="80" as="geometry" />
        </mxCell>
        <mxCell id="-LpQhi8gAM7fTuOy2161-26" value="&lt;div&gt;N&lt;/div&gt;" style="text;html=1;align=center;verticalAlign=middle;resizable=0;points=[];autosize=1;strokeColor=none;fillColor=none;" vertex="1" parent="1">
          <mxGeometry x="470" y="120" width="30" height="30" as="geometry" />
        </mxCell>
        <mxCell id="-LpQhi8gAM7fTuOy2161-28" value="M" style="text;html=1;align=center;verticalAlign=middle;resizable=0;points=[];autosize=1;strokeColor=none;fillColor=none;" vertex="1" parent="1">
          <mxGeometry x="600" y="130" width="30" height="30" as="geometry" />
        </mxCell>
        <mxCell id="-LpQhi8gAM7fTuOy2161-29" value="1" style="text;html=1;align=center;verticalAlign=middle;resizable=0;points=[];autosize=1;strokeColor=none;fillColor=none;" vertex="1" parent="1">
          <mxGeometry x="150" y="85" width="30" height="30" as="geometry" />
        </mxCell>
        <mxCell id="-LpQhi8gAM7fTuOy2161-30" value="N" style="text;html=1;align=center;verticalAlign=middle;resizable=0;points=[];autosize=1;strokeColor=none;fillColor=none;" vertex="1" parent="1">
          <mxGeometry x="280" y="170" width="30" height="30" as="geometry" />
        </mxCell>
        <mxCell id="-LpQhi8gAM7fTuOy2161-31" value="1" style="text;html=1;align=center;verticalAlign=middle;resizable=0;points=[];autosize=1;strokeColor=none;fillColor=none;" vertex="1" parent="1">
          <mxGeometry x="340" y="360" width="30" height="30" as="geometry" />
        </mxCell>
        <mxCell id="-LpQhi8gAM7fTuOy2161-32" value="1" style="text;html=1;align=center;verticalAlign=middle;resizable=0;points=[];autosize=1;strokeColor=none;fillColor=none;" vertex="1" parent="1">
          <mxGeometry x="340" y="260" width="30" height="30" as="geometry" />
        </mxCell>
        <mxCell id="-LpQhi8gAM7fTuOy2161-33" value="1" style="text;html=1;align=center;verticalAlign=middle;resizable=0;points=[];autosize=1;strokeColor=none;fillColor=none;" vertex="1" parent="1">
          <mxGeometry x="390" y="210" width="30" height="30" as="geometry" />
        </mxCell>
        <mxCell id="-LpQhi8gAM7fTuOy2161-34" value="1" style="text;html=1;align=center;verticalAlign=middle;resizable=0;points=[];autosize=1;strokeColor=none;fillColor=none;" vertex="1" parent="1">
          <mxGeometry x="384" y="430" width="30" height="30" as="geometry" />
        </mxCell>
        <mxCell id="-LpQhi8gAM7fTuOy2161-38" value="FECHA INICIO" style="ellipse;whiteSpace=wrap;html=1;align=center;fillColor=#d5e8d4;strokeColor=#82b366;" vertex="1" parent="1">
          <mxGeometry x="500" y="80" width="100" height="40" as="geometry" />
        </mxCell>
        <mxCell id="-LpQhi8gAM7fTuOy2161-39" value="FECHA FIN" style="ellipse;whiteSpace=wrap;html=1;align=center;fillColor=#d5e8d4;strokeColor=#82b366;" vertex="1" parent="1">
          <mxGeometry x="500" y="40" width="100" height="40" as="geometry" />
        </mxCell>
      </root>
    </mxGraphModel>
  </diagram>
</mxfile>
